<?xml version="1.0"?>
<!DOCTYPE svg PUBLIC "-//W3C//DTD SVG 1.1//EN" "http://www.w3.org/Graphics/SVG/1.1/DTD/svg11.dtd">
<svg xmlns="http://www.w3.org/2000/svg" xmlns:xlink="http://www.w3.org/1999/xlink" id="pathway_image" externalResourcesRequired="true" version="1.1" width="1300" height="1300">
    <defs>
  <radialGradient id="coa" cx="50%" cy="50%" r="70%">
    <stop offset="10%" stop-color="#FF8080"/>
    <stop offset="90%" stop-color="#C40000"/>
  </radialGradient>
  <radialGradient id="pyrophosphate" gradientUnits="userSpaceOnUse" cx="31.071" cy="21.673" r="29.851">
    <stop offset="0" stop-color="#80C8FF"/>
    <stop offset="1" stop-color="#672BFF"/>
  </radialGradient>
  <radialGradient id="phosphate" gradientUnits="userSpaceOnUse" cx="21.811" cy="21.673" r="20.591">
    <stop offset="0" stop-color="#80C8FF"/>
    <stop offset="1" stop-color="#672BFF"/>
  </radialGradient>
  <radialGradient id="atp" cx="50%" cy="50%" r="70%">
    <stop offset="10%" stop-color="#FFF3AA"/>
    <stop offset="90%" stop-color="#443A00"/>
  </radialGradient>
  <radialGradient id="HCO3_1" gradientUnits="userSpaceOnUse" cx="28.843" cy="26.412" r="15.322">
    <stop offset="0" stop-color="#EAEAEA"/>
    <stop offset="1" stop-color="#0088EE"/>
  </radialGradient>
  <radialGradient id="HCO3_2" gradientUnits="userSpaceOnUse" cx="55.617" cy="37.127" r="15.322">
    <stop offset="0" stop-color="#EAEAEA"/>
    <stop offset="1" stop-color="#0088EE"/>
  </radialGradient>
  <radialGradient id="HCO3_3" gradientUnits="userSpaceOnUse" cx="33.639" cy="54.28" r="11.229">
    <stop offset="0" stop-color="#FF8080"/>
    <stop offset="1" stop-color="#C40000"/>
  </radialGradient>
  <radialGradient id="HCO3_4" gradientUnits="userSpaceOnUse" cx="39.203" cy="39.299" r="15.373">
    <stop offset="0" stop-color="#D5D5D5"/>
    <stop offset="1" stop-color="#2B2B2B"/>
  </radialGradient>
  <radialGradient id="HCO3_5" gradientUnits="userSpaceOnUse" cx="47.725" cy="25.389" r="15.322">
    <stop offset="0" stop-color="#EAEAEA"/>
    <stop offset="1" stop-color="#0088EE"/>
  </radialGradient>
  <!-- compounds color -->
  <linearGradient id="svg_1" x1="1.0" y1="0" x2="1" y2="1">
    <stop offset="0" stop-color="#1199FF"/>
    <stop offset="1" stop-color="#99bbFF"/>
  </linearGradient>
  <radialGradient id="protein_color_1" r="0.65306" cy="0.5" cx="0.5">
    <stop stop-color="#44EE22" offset="0.5"/>
    <stop stop-color="#117700" offset="1"/>
  </radialGradient>
  <radialGradient id="protein_color_2" r="0.65306" cy="0.5" cx="0.5">
    <stop stop-color="#FE9A2E" offset="0.5"/>
    <stop stop-color="#CD7B23" offset="1"/>
  </radialGradient>
  <radialGradient id="protein_color_3" r="0.65306" cy="0.5" cx="0.5">
    <stop stop-color="#FE642E" offset="0.5"/>
    <stop stop-color="#BB4A21" offset="1"/>
  </radialGradient>
  <radialGradient id="protein_color_4" r="0.65306" cy="0.5" cx="0.5">
    <stop stop-color="#298A08" offset="0.5"/>
    <stop stop-color="#195705" offset="1"/>
  </radialGradient>
  <radialGradient id="protein_color_5" r="0.65306" cy="0.5" cx="0.5">
    <stop stop-color="#AC58FA" offset="0.5"/>
    <stop stop-color="#8A45CA" offset="1"/>
  </radialGradient>
  <radialGradient id="protein_color_6" r="0.65306" cy="0.5" cx="0.5">
    <stop stop-color="#AD3333" offset="0.5"/>
    <stop stop-color="#990000" offset="1"/>
  </radialGradient>
  <radialGradient id="na_color" r="0.65306" cy="0.5" cx="0.5">
    <stop stop-color="#FFFF00" offset="0.5"/>
    <stop stop-color="#C2C201" offset="1"/>
  </radialGradient>
  <radialGradient id="sp_color" r="0.65306" cy="0.5" cx="0.5">
    <stop stop-color="#01DFD7" offset="0.5"/>
    <stop stop-color="#00ABA5" offset="1"/>
  </radialGradient>
  <radialGradient id="protein_drug_color" r="0.65306" cy="0.5" cx="0.5">
    <stop stop-color="#FA58F4" offset="0.5"/>
    <stop stop-color="#C946C5" offset="1"/>
  </radialGradient>
  <linearGradient id="compound_drug_color" x1="1.0" y1="0" x2="1" y2="1">
    <stop offset="0" stop-color="#FA58F4"/>
    <stop offset="1" stop-color="#C946C5"/>
  </linearGradient>
   <!-- background -->
  <linearGradient y2="0.99609" x2="0.75391" y1="0.00781" x1="0.26172" id="svg_3">
    <stop offset="0" stop-color="#110066"/>
    <stop offset="1" stop-color="#000099"/>
  </linearGradient>
  <g id="lipid">
    <g><circle fill="#ff0000" stroke="#000000" cx="10" cy="10" r="5"/>
        <line y2="33" x2="8" y1="15" x1="8" stroke="#000000" fill="none"/>
        <line y2="33" x2="12" y1="15" x1="12" stroke="#000000" fill="none"/>
    </g>
    <g><circle fill="#ff0000" stroke="#000000" cx="10" cy="57" r="5"/>
        <line y2="53" x2="8" y1="35" x1="8" stroke="#000000" fill="none"/>
        <line y2="53" x2="12" y1="35" x1="12" stroke="#000000" fill="none"/>
    </g>
  </g>
  <g id="moldb_cache">
  </g>
  <pattern id="compoundHatch" patternUnits="userSpaceOnUse" width="4" height="4">
    <rect x="0" y="0" width="100%" height="100%" fill="white"/>
    <path d="M-1,1 l2,-2              M0,4 l4,-4              M3,5 l2,-2" stroke="#1199FF" stroke-width="1.5"/>
  </pattern>
  <pattern id="nucleicHatch" patternUnits="userSpaceOnUse" width="4" height="4">
    <rect x="0" y="0" width="100%" height="100%" fill="white"/>
    <path d="M-1,1 l2,-2              M0,4 l4,-4              M3,5 l2,-2" stroke="#FFFF00" stroke-width="1.5"/>
  </pattern>
  <pattern id="protein_complexHatch" patternUnits="userSpaceOnUse" width="4" height="4">
    <rect x="0" y="0" width="100%" height="100%" fill="white"/>
    <path d="M-1,1 l2,-2              M0,4 l4,-4              M3,5 l2,-2" stroke="#44EE22" stroke-width="1.5"/>
  </pattern>
  <pattern id="receptorHatch" patternUnits="userSpaceOnUse" width="4" height="4">
    <rect x="0" y="0" width="100%" height="100%" fill="white"/>
    <path d="M-1,1 l2,-2              M0,4 l4,-4              M3,5 l2,-2" stroke="#FF9900" stroke-width="1.5"/>
  </pattern>
  <linearGradient id="mitochondriaInner" gradientUnits="userSpaceOnUse" x1="-66.5934" y1="642.6035" x2="833.4064" y2="642.6035" gradientTransform="matrix(1.25 0 0 1.25 10.3858 -180.3908)">
    <stop offset="0" style="stop-color:#FEAEAC"/>
    <stop offset="1" style="stop-color:#FFCCCA"/>
  </linearGradient>
  <pattern id="grid" width="50" height="50" patternUnits="userSpaceOnUse">
      <path d="M 50 0 L 0 0 0 50" fill="none" stroke="#BBB" stroke-width="1"/>
  </pattern>
  <filter id="greyscale">
    <feColorMatrix type="matrix" values="0.3333 0.3333 0.3333 0 0     0.3333 0.3333 0.3333 0 0     0.3333 0.3333 0.3333 0 0     0 0 0 1 0"/>
  </filter>
</defs>

      <g id="pathway" transform="translate(0,0) scale(1,1)">
      	<rect id="background" fill="#000099" x="0" y="0" width="1300" height="1300"/>
      <g><g>
    
    
    
      
      
    
    <g id="membrane_visualization" data-element-type="membrane" data-location-id="356" data-complex="false" data-default-color="#4BC8F2">
      
        <path data-colored="true" d="M185 655 C185 605 235 555 285 555 C501 555 781 555 997 555 C1047 555 1097 605 1097 655 C1097 756 1097 887 1097 988 C1097 1038 1047 1088 997 1088 C781 1088 501 1088 285 1088 C235 1088 185 1038 185 988 C185 887 185 756 185 655 " fill="none" stroke="#4BC8F2" stroke-width="50"/>
      
      
    </g>
  </g></g><g><g>
    
    
    
    
    
    
      
      
    
    <g id="location" transform="translate(200,140)" data-element-type="protein" data-location-id="2421" data-element-id="DB00112" data-default-color="url(#protein_drug_color)">
      <ellipse data-colored="true" cx="75" cy="35" rx="75" ry="35" stroke="#000000" stroke-width="1" pointer-events="visible" fill="url(#protein_drug_color)"/>
      
      <text x="75" y="27" font-family="Verdana" text-anchor="middle" font-size="10" fill="black" pointer-events="none">
        
          <tspan x="75" dy="10">Bevacizumab</tspan>
        
      </text>
      <g transform="translate(120,30) scale(0.5,0.5)">
        <path d="M50.615,7.253 C51.719,9.179 52.362,11.202 51.077,14.509 L42.803,27.114 L29.171,18.356 L37.037,5.837 C39.581,3.252 42.122,2.666 44.395,2.909 C46.669,3.151 49.512,5.326 50.615,7.253 z" fill="#00F900"/>
        <path d="M51.115,7.753 C52.219,9.679 52.862,11.702 51.577,15.009 L43.303,27.614 L29.671,18.856 L37.537,6.337 C40.081,3.752 42.622,3.166 44.895,3.409 C47.169,3.651 50.012,5.826 51.115,7.753 z" fill-opacity="0" stroke="#000000" stroke-width="2.25" stroke-linejoin="round"/>
        <path d="M21.252,38.28 C20.158,36.366 19.521,34.356 20.8,31.069 L29.027,18.535 L42.556,27.226 L34.734,39.675 C32.206,42.246 29.682,42.83 27.425,42.591 C25.167,42.352 22.346,40.193 21.252,38.28 z" fill="#3DACFF"/>
        <path d="M21.752,38.78 C20.658,36.866 20.021,34.856 21.3,31.569 L29.527,19.035 L43.056,27.726 L35.234,40.175 C32.706,42.746 30.182,43.33 27.925,43.091 C25.667,42.852 22.846,40.693 21.752,38.78 z" fill-opacity="0" stroke="#000000" stroke-width="2.25" stroke-linejoin="round"/>
        <path d="M41.565,7.288 C42.023,7.039 42.87,6.841 43.311,6.74 C43.753,6.638 44.21,6.898 44.2,6.572 L43.289,4.778 C42.661,4.652 40.979,5.118 40.185,5.672 C39.391,6.226 38.542,7.442 38.483,8.07 L39.879,9.538 C40.225,9.56 40.275,8.606 40.563,8.236 C40.851,7.866 41.107,7.537 41.565,7.288 z" fill="#FFFFFF"/>
        <path d="M3.575,32.338 C4.605,30.413 5.967,28.815 9.463,28.125 L24.625,28.27 L24.625,44.105 L9.757,44.25 C6.188,43.524 4.311,41.744 3.28,39.747 C2.25,37.749 2.544,34.263 3.575,32.338 z" fill="#FF4C00"/>
        <path d="M4.075,32.838 C5.105,30.913 6.467,29.315 9.963,28.625 L25.125,28.77 L25.125,44.605 L10.257,44.75 C6.688,44.024 4.811,42.244 3.78,40.247 C2.75,38.249 3.044,34.763 4.075,32.838 z" fill-opacity="0" stroke="#000000" stroke-width="2.25" stroke-linejoin="round"/>
        <path d="M45.168,40.037 C44.132,41.962 42.762,43.56 39.247,44.25 L24,44.105 L24,28.27 L38.951,28.125 C42.54,28.851 44.428,30.631 45.464,32.628 C46.5,34.626 46.204,38.112 45.168,40.037 z" fill="#FFFB23"/>
        <path d="M45.668,40.537 C44.632,42.462 43.262,44.06 39.747,44.75 L24.5,44.605 L24.5,28.77 L39.451,28.625 C43.04,29.351 44.928,31.131 45.964,33.128 C47,35.126 46.704,38.612 45.668,40.537 z" fill-opacity="0" stroke="#000000" stroke-width="2.25" stroke-linejoin="round"/>
        <path d="M8.596,32.198 C9.075,32.018 9.923,31.946 10.365,31.91 C10.808,31.874 11.213,32.198 11.25,31.874 L10.623,29.966 C10.034,29.75 8.338,29.966 7.49,30.398 C6.643,30.83 5.647,31.91 5.5,32.522 L6.643,34.178 C6.974,34.25 7.159,33.314 7.49,32.99 C7.822,32.666 8.117,32.378 8.596,32.198 z" fill="#FFFFFF"/>
      </g>  
      
    </g>
  </g></g><g><g>
    
    
    
    
    
    
      
      
    
    <g id="location" transform="translate(555,135)" data-element-type="protein" data-location-id="2422" data-element-id="P15692" data-default-color="url(#protein_color_1)"> 
      <ellipse data-colored="true" cx="75" cy="35" rx="75" ry="35" stroke="#000000" stroke-width="1" pointer-events="visible" fill="url(#protein_color_1)"/>
      <ellipse data-colored="true" cx="85" cy="45" rx="75" ry="35" stroke="#000000" stroke-width="1" pointer-events="visible" fill="url(#protein_color_1)"/>
      
      <text x="85" y="30" font-family="Verdana" text-anchor="middle" font-size="10" fill="black" pointer-events="none">
        
          <tspan x="85" dy="10">Vascular</tspan>
        
          <tspan x="85" dy="10">endothelial</tspan>
        
          <tspan x="85" dy="10">growth factor A</tspan>
        
      </text>
      
    </g>
  </g></g><g><g>
    
    
    
    
    
    
      
      
    
    <g id="location" transform="translate(340,482)" data-element-type="protein" data-location-id="2423" data-element-id="P35968" data-default-color="url(#Gradient_1)">
      <rect class="selection-box" x="-10" y="-10" width="230" height="230" fill="none" stroke="none" stroke-width="1" stroke-dasharray="5,5"/>
      <g id="Layer 1">
        <path d="M44.625,109.5 C43.125,117 41.625,124.5 44.625,127.5 C47.625,130.5 57.625,130.5 62.625,127.5 C67.625,124.5 71.125,117 74.625,109.5" fill-opacity="0" stroke="#FF9900" stroke-width="3" stroke-linejoin="round"/>
        <path d="M92.625,109.5 C96.125,118.5 99.625,127.5 104.625,127.5 C109.625,127.5 116.125,118.5 122.625,109.5" fill-opacity="0" stroke="#FF9900" stroke-width="3" stroke-linejoin="round"/>
        <path d="M140.625,109.5 C144.125,117 147.625,124.5 152.625,127.5 C157.625,130.5 167.625,131.5 170.625,127.5 C173.625,123.5 172.125,113.5 170.625,103.5" fill-opacity="0" stroke="#FF9900" stroke-width="3" stroke-linejoin="round"/>
        <path d="M188.625,109.5 C193.625,130 198.625,150.5 194.625,163.5 C190.625,176.5 177.625,183.5 164.625,187.5 C151.625,191.5 128.625,183.5 116.625,187.5 C104.625,191.5 98.625,201.5 92.625,211.5" fill-opacity="0" stroke="#FF9900" stroke-width="3" stroke-linejoin="round"/>
        <path d="M46.5,115 C45.37,114.899 45.04,114.948 43.824,114.281 C40.276,112.334 38.552,107.486 37.905,103.758 C37.526,101.579 37.554,100.909 37.5,99 L37.5,35 C37.562,30.055 39.019,22.355 43.824,19.719 C44.801,19.183 46.272,18.774 47.42,19.083 C48.022,19.244 48.63,19.42 49.176,19.719 C52.724,21.666 54.448,26.514 55.095,30.242 C55.474,32.421 55.446,33.091 55.5,35 L55.5,99 C55.438,103.945 53.981,111.645 49.176,114.281 C48.63,114.58 48.006,114.705 47.42,114.917 z" fill="url(#Gradient_1)" data-colored="true"/>
        <path d="M56,35.5 C56,44.337 51.971,51.5 47,51.5 C42.029,51.5 38,44.337 38,35.5" fill-opacity="0" stroke="#FFFFFF" stroke-width="1" stroke-linejoin="round"/>
        <path d="M38,35.5 C38,26.663 42.029,19.5 47,19.5 C51.971,19.5 56,26.663 56,35.5 L56,99.5 C56,108.337 51.971,115.5 47,115.5 C42.029,115.5 38,108.337 38,99.5 z" fill-opacity="0" stroke="#FFFFFF" stroke-width="1" stroke-linejoin="round"/>
        <path d="M70.5,115 C69.37,114.899 69.04,114.948 67.824,114.281 C64.276,112.334 62.552,107.486 61.905,103.758 C61.526,101.579 61.554,100.909 61.5,99 L61.5,35 C61.562,30.055 63.019,22.355 67.824,19.719 C68.801,19.183 70.272,18.774 71.42,19.083 C72.022,19.244 72.63,19.42 73.176,19.719 C76.724,21.666 78.448,26.514 79.095,30.242 C79.474,32.421 79.446,33.091 79.5,35 L79.5,99 C79.438,103.945 77.981,111.645 73.176,114.281 C72.63,114.58 72.006,114.705 71.42,114.917 z" fill="url(#Gradient_1)" data-colored="true"/>
        <path d="M80,35.5 C80,44.337 75.971,51.5 71,51.5 C66.029,51.5 62,44.337 62,35.5" fill-opacity="0" stroke="#FFFFFF" stroke-width="1" stroke-linejoin="round"/>
        <path d="M62,35.5 C62,26.663 66.029,19.5 71,19.5 C75.971,19.5 80,26.663 80,35.5 L80,99.5 C80,108.337 75.971,115.5 71,115.5 C66.029,115.5 62,108.337 62,99.5 z" fill-opacity="0" stroke="#FFFFFF" stroke-width="1" stroke-linejoin="round"/>
        <path d="M94.5,115 C93.37,114.899 93.04,114.948 91.824,114.281 C88.276,112.334 86.552,107.486 85.905,103.758 C85.526,101.579 85.554,100.909 85.5,99 L85.5,35 C85.562,30.055 87.019,22.355 91.824,19.719 C92.801,19.183 94.272,18.774 95.42,19.083 C96.022,19.244 96.63,19.42 97.176,19.719 C100.724,21.666 102.448,26.514 103.095,30.242 C103.474,32.421 103.446,33.091 103.5,35 L103.5,99 C103.438,103.945 101.981,111.645 97.176,114.281 C96.63,114.58 96.006,114.705 95.42,114.917 z" fill="url(#Gradient_1)" data-colored="true"/>
        <path d="M104,35.5 C104,44.337 99.971,51.5 95,51.5 C90.029,51.5 86,44.337 86,35.5" fill-opacity="0" stroke="#FFFFFF" stroke-width="1" stroke-linejoin="round"/>
        <path d="M86,35.5 C86,26.663 90.029,19.5 95,19.5 C99.971,19.5 104,26.663 104,35.5 L104,99.5 C104,108.337 99.971,115.5 95,115.5 C90.029,115.5 86,108.337 86,99.5 z" fill-opacity="0" stroke="#FFFFFF" stroke-width="1" stroke-linejoin="round"/>
        <path d="M118.5,115 C117.37,114.899 117.04,114.948 115.824,114.281 C112.276,112.334 110.552,107.486 109.905,103.758 C109.526,101.579 109.554,100.909 109.5,99 L109.5,35 C109.562,30.055 111.019,22.355 115.824,19.719 C116.801,19.183 118.272,18.774 119.42,19.083 C120.022,19.244 120.63,19.42 121.176,19.719 C124.724,21.666 126.448,26.514 127.095,30.242 C127.474,32.421 127.446,33.091 127.5,35 L127.5,99 C127.438,103.945 125.981,111.645 121.176,114.281 C120.63,114.58 120.006,114.705 119.42,114.917 z" fill="url(#Gradient_1)" data-colored="true"/>
        <path d="M128,35.5 C128,44.337 123.971,51.5 119,51.5 C114.029,51.5 110,44.337 110,35.5" fill-opacity="0" stroke="#FFFFFF" stroke-width="1" stroke-linejoin="round"/>
        <path d="M110,35.5 C110,26.663 114.029,19.5 119,19.5 C123.971,19.5 128,26.663 128,35.5 L128,99.5 C128,108.337 123.971,115.5 119,115.5 C114.029,115.5 110,108.337 110,99.5 z" fill-opacity="0" stroke="#FFFFFF" stroke-width="1" stroke-linejoin="round"/>
        <path d="M142.5,115 C141.37,114.899 141.04,114.948 139.824,114.281 C136.276,112.334 134.552,107.486 133.905,103.758 C133.526,101.579 133.554,100.909 133.5,99 L133.5,35 C133.562,30.055 135.019,22.355 139.824,19.719 C140.801,19.183 142.272,18.774 143.42,19.083 C144.022,19.244 144.63,19.42 145.176,19.719 C148.724,21.666 150.448,26.514 151.095,30.242 C151.474,32.421 151.446,33.091 151.5,35 L151.5,99 C151.438,103.945 149.981,111.645 145.176,114.281 C144.63,114.58 144.006,114.705 143.42,114.917 z" fill="url(#Gradient_1)" data-colored="true"/>
        <path d="M152,35.5 C152,44.337 147.971,51.5 143,51.5 C138.029,51.5 134,44.337 134,35.5" fill-opacity="0" stroke="#FFFFFF" stroke-width="1" stroke-linejoin="round"/>
        <path d="M134,35.5 C134,26.663 138.029,19.5 143,19.5 C147.971,19.5 152,26.663 152,35.5 L152,99.5 C152,108.337 147.971,115.5 143,115.5 C138.029,115.5 134,108.337 134,99.5 z" fill-opacity="0" stroke="#FFFFFF" stroke-width="1" stroke-linejoin="round"/>
        <path d="M166.5,115 C165.37,114.899 165.04,114.948 163.824,114.281 C160.276,112.334 158.552,107.486 157.905,103.758 C157.526,101.579 157.554,100.909 157.5,99 L157.5,35 C157.562,30.055 159.019,22.355 163.824,19.719 C164.801,19.183 166.272,18.774 167.42,19.083 C168.022,19.244 168.63,19.42 169.176,19.719 C172.724,21.666 174.448,26.514 175.095,30.242 C175.474,32.421 175.446,33.091 175.5,35 L175.5,99 C175.438,103.945 173.981,111.645 169.176,114.281 C168.63,114.58 168.006,114.705 167.42,114.917 z" fill="url(#Gradient_1)" data-colored="true"/>
        <path d="M176,35.5 C176,44.337 171.971,51.5 167,51.5 C162.029,51.5 158,44.337 158,35.5" fill-opacity="0" stroke="#FFFFFF" stroke-width="1" stroke-linejoin="round"/>
        <path d="M158,35.5 C158,26.663 162.029,19.5 167,19.5 C171.971,19.5 176,26.663 176,35.5 L176,99.5 C176,108.337 171.971,115.5 167,115.5 C162.029,115.5 158,108.337 158,99.5 z" fill-opacity="0" stroke="#FFFFFF" stroke-width="1" stroke-linejoin="round"/>
        <path d="M190.5,115 C189.37,114.899 189.04,114.948 187.824,114.281 C184.276,112.334 182.552,107.486 181.905,103.758 C181.526,101.579 181.554,100.909 181.5,99 L181.5,35 C181.562,30.055 183.019,22.355 187.824,19.719 C188.801,19.183 190.272,18.774 191.42,19.083 C192.022,19.244 192.63,19.42 193.176,19.719 C196.724,21.666 198.448,26.514 199.095,30.242 C199.474,32.421 199.446,33.091 199.5,35 L199.5,99 C199.438,103.945 197.981,111.645 193.176,114.281 C192.63,114.58 192.006,114.705 191.42,114.917 z" fill="url(#Gradient_1)" data-colored="true"/>
        <path d="M200,35.5 C200,44.337 195.971,51.5 191,51.5 C186.029,51.5 182,44.337 182,35.5" fill-opacity="0" stroke="#FFFFFF" stroke-width="1" stroke-linejoin="round"/>
        <path d="M182,35.5 C182,26.663 186.029,19.5 191,19.5 C195.971,19.5 200,26.663 200,35.5 L200,99.5 C200,108.337 195.971,115.5 191,115.5 C186.029,115.5 182,108.337 182,99.5 z" fill-opacity="0" stroke="#FFFFFF" stroke-width="1" stroke-linejoin="round"/>
        <path d="M2.75,14.797 C7.811,21.086 12.871,27.375 17.932,26.117 C22.992,24.859 28.686,7.25 33.114,7.25 C37.542,7.25 41.021,16.684 44.5,26.117" fill-opacity="0" stroke="#FF9900" stroke-width="3" stroke-linejoin="round"/>
        <path d="M164.625,25.5 C168.125,16.5 171.625,7.5 176.625,7.5 C181.625,7.5 188.125,16.5 194.625,25.5" fill-opacity="0" stroke="#FF9900" stroke-width="3" stroke-linejoin="round"/>
        <path d="M68.625,31.5 C70.125,26.3 71.625,21.1 74.625,17.1 C77.625,13.1 82.625,7.5 86.625,7.5 C90.625,7.5 97.625,13.9 98.625,17.1 C99.625,20.3 96.125,23.5 92.625,26.7" fill-opacity="0" stroke="#FF9900" stroke-width="3" stroke-linejoin="round"/>
        <path d="M116.625,31.5 C120.125,20.786 123.625,10.071 128.625,5.786 C133.625,1.5 144.625,2.929 146.625,5.786 C148.625,8.643 144.625,15.786 140.625,22.929" fill-opacity="0" stroke="#FF9900" stroke-width="3" stroke-linejoin="round"/>
      </g>
      <defs>
        <linearGradient id="Gradient_1" gradientUnits="userSpaceOnUse" x1="46.5" y1="19" x2="46.5" y2="115">
          <stop offset="0" stop-color="#FF9900"/>
          <stop offset="0.125" stop-color="#FF9E0B"/>
          <stop offset="0.25" stop-color="#FFA217"/>
          <stop offset="0.375" stop-color="#FFA722"/>
          <stop offset="0.5" stop-color="#FFAB2E"/>
          <stop offset="0.625" stop-color="#FFB039"/>
          <stop offset="0.75" stop-color="#FFB444"/>
          <stop offset="0.875" stop-color="#FFB950"/>
          <stop offset="1" stop-color="#FFBD5B"/>
        </linearGradient>
        <linearGradient id="Gradient_2" gradientUnits="userSpaceOnUse" x1="70.5" y1="19" x2="70.5" y2="115">
          <stop offset="0" stop-color="#FF9900"/>
          <stop offset="0.125" stop-color="#FF9E0B"/>
          <stop offset="0.25" stop-color="#FFA217"/>
          <stop offset="0.375" stop-color="#FFA722"/>
          <stop offset="0.5" stop-color="#FFAB2E"/>
          <stop offset="0.625" stop-color="#FFB039"/>
          <stop offset="0.75" stop-color="#FFB444"/>
          <stop offset="0.875" stop-color="#FFB950"/>
          <stop offset="1" stop-color="#FFBD5B"/>
        </linearGradient>
        <linearGradient id="Gradient_3" gradientUnits="userSpaceOnUse" x1="94.5" y1="19" x2="94.5" y2="115">
          <stop offset="0" stop-color="#FF9900"/>
          <stop offset="0.125" stop-color="#FF9E0B"/>
          <stop offset="0.25" stop-color="#FFA217"/>
          <stop offset="0.375" stop-color="#FFA722"/>
          <stop offset="0.5" stop-color="#FFAB2E"/>
          <stop offset="0.625" stop-color="#FFB039"/>
          <stop offset="0.75" stop-color="#FFB444"/>
          <stop offset="0.875" stop-color="#FFB950"/>
          <stop offset="1" stop-color="#FFBD5B"/>
        </linearGradient>
        <linearGradient id="Gradient_4" gradientUnits="userSpaceOnUse" x1="118.5" y1="19" x2="118.5" y2="115">
          <stop offset="0" stop-color="#FF9900"/>
          <stop offset="0.125" stop-color="#FF9E0B"/>
          <stop offset="0.25" stop-color="#FFA217"/>
          <stop offset="0.375" stop-color="#FFA722"/>
          <stop offset="0.5" stop-color="#FFAB2E"/>
          <stop offset="0.625" stop-color="#FFB039"/>
          <stop offset="0.75" stop-color="#FFB444"/>
          <stop offset="0.875" stop-color="#FFB950"/>
          <stop offset="1" stop-color="#FFBD5B"/>
        </linearGradient>
        <linearGradient id="Gradient_5" gradientUnits="userSpaceOnUse" x1="142.5" y1="19" x2="142.5" y2="115">
          <stop offset="0" stop-color="#FF9900"/>
          <stop offset="0.125" stop-color="#FF9E0B"/>
          <stop offset="0.25" stop-color="#FFA217"/>
          <stop offset="0.375" stop-color="#FFA722"/>
          <stop offset="0.5" stop-color="#FFAB2E"/>
          <stop offset="0.625" stop-color="#FFB039"/>
          <stop offset="0.75" stop-color="#FFB444"/>
          <stop offset="0.875" stop-color="#FFB950"/>
          <stop offset="1" stop-color="#FFBD5B"/>
        </linearGradient>
        <linearGradient id="Gradient_6" gradientUnits="userSpaceOnUse" x1="166.5" y1="19" x2="166.5" y2="115">
          <stop offset="0" stop-color="#FF9900"/>
          <stop offset="0.125" stop-color="#FF9E0B"/>
          <stop offset="0.25" stop-color="#FFA217"/>
          <stop offset="0.375" stop-color="#FFA722"/>
          <stop offset="0.5" stop-color="#FFAB2E"/>
          <stop offset="0.625" stop-color="#FFB039"/>
          <stop offset="0.75" stop-color="#FFB444"/>
          <stop offset="0.875" stop-color="#FFB950"/>
          <stop offset="1" stop-color="#FFBD5B"/>
        </linearGradient>
        <linearGradient id="Gradient_7" gradientUnits="userSpaceOnUse" x1="190.5" y1="19" x2="190.5" y2="115">
          <stop offset="0" stop-color="#FF9900"/>
          <stop offset="0.125" stop-color="#FF9E0B"/>
          <stop offset="0.25" stop-color="#FFA217"/>
          <stop offset="0.375" stop-color="#FFA722"/>
          <stop offset="0.5" stop-color="#FFAB2E"/>
          <stop offset="0.625" stop-color="#FFB039"/>
          <stop offset="0.75" stop-color="#FFB444"/>
          <stop offset="0.875" stop-color="#FFB950"/>
          <stop offset="1" stop-color="#FFBD5B"/>
        </linearGradient>
      </defs>
      
      <rect x="60" y="35" height="60" width="120" fill="white"/>
      <text x="0" y="40" font-family="Verdana" text-anchor="middle" font-size="10" fill="black" pointer-events="none">
        
          <tspan x="120" dy="10">Vascular</tspan>
        
          <tspan x="120" dy="10">endothelial</tspan>
        
          <tspan x="120" dy="10">growth factor</tspan>
        
          <tspan x="120" dy="10">receptor 2</tspan>
        
      </text>
      
    </g>
  </g></g><g><g>
    
    
    
    
    
    
      
      
    
    <g id="location" transform="translate(705,487)" data-element-type="protein" data-location-id="2424" data-element-id="P17948" data-default-color="url(#Gradient_1)">
      <rect class="selection-box" x="-10" y="-10" width="230" height="230" fill="none" stroke="none" stroke-width="1" stroke-dasharray="5,5"/>
      <g id="Layer 1">
        <path d="M44.625,109.5 C43.125,117 41.625,124.5 44.625,127.5 C47.625,130.5 57.625,130.5 62.625,127.5 C67.625,124.5 71.125,117 74.625,109.5" fill-opacity="0" stroke="#FF9900" stroke-width="3" stroke-linejoin="round"/>
        <path d="M92.625,109.5 C96.125,118.5 99.625,127.5 104.625,127.5 C109.625,127.5 116.125,118.5 122.625,109.5" fill-opacity="0" stroke="#FF9900" stroke-width="3" stroke-linejoin="round"/>
        <path d="M140.625,109.5 C144.125,117 147.625,124.5 152.625,127.5 C157.625,130.5 167.625,131.5 170.625,127.5 C173.625,123.5 172.125,113.5 170.625,103.5" fill-opacity="0" stroke="#FF9900" stroke-width="3" stroke-linejoin="round"/>
        <path d="M188.625,109.5 C193.625,130 198.625,150.5 194.625,163.5 C190.625,176.5 177.625,183.5 164.625,187.5 C151.625,191.5 128.625,183.5 116.625,187.5 C104.625,191.5 98.625,201.5 92.625,211.5" fill-opacity="0" stroke="#FF9900" stroke-width="3" stroke-linejoin="round"/>
        <path d="M46.5,115 C45.37,114.899 45.04,114.948 43.824,114.281 C40.276,112.334 38.552,107.486 37.905,103.758 C37.526,101.579 37.554,100.909 37.5,99 L37.5,35 C37.562,30.055 39.019,22.355 43.824,19.719 C44.801,19.183 46.272,18.774 47.42,19.083 C48.022,19.244 48.63,19.42 49.176,19.719 C52.724,21.666 54.448,26.514 55.095,30.242 C55.474,32.421 55.446,33.091 55.5,35 L55.5,99 C55.438,103.945 53.981,111.645 49.176,114.281 C48.63,114.58 48.006,114.705 47.42,114.917 z" fill="url(#Gradient_1)" data-colored="true"/>
        <path d="M56,35.5 C56,44.337 51.971,51.5 47,51.5 C42.029,51.5 38,44.337 38,35.5" fill-opacity="0" stroke="#FFFFFF" stroke-width="1" stroke-linejoin="round"/>
        <path d="M38,35.5 C38,26.663 42.029,19.5 47,19.5 C51.971,19.5 56,26.663 56,35.5 L56,99.5 C56,108.337 51.971,115.5 47,115.5 C42.029,115.5 38,108.337 38,99.5 z" fill-opacity="0" stroke="#FFFFFF" stroke-width="1" stroke-linejoin="round"/>
        <path d="M70.5,115 C69.37,114.899 69.04,114.948 67.824,114.281 C64.276,112.334 62.552,107.486 61.905,103.758 C61.526,101.579 61.554,100.909 61.5,99 L61.5,35 C61.562,30.055 63.019,22.355 67.824,19.719 C68.801,19.183 70.272,18.774 71.42,19.083 C72.022,19.244 72.63,19.42 73.176,19.719 C76.724,21.666 78.448,26.514 79.095,30.242 C79.474,32.421 79.446,33.091 79.5,35 L79.5,99 C79.438,103.945 77.981,111.645 73.176,114.281 C72.63,114.58 72.006,114.705 71.42,114.917 z" fill="url(#Gradient_1)" data-colored="true"/>
        <path d="M80,35.5 C80,44.337 75.971,51.5 71,51.5 C66.029,51.5 62,44.337 62,35.5" fill-opacity="0" stroke="#FFFFFF" stroke-width="1" stroke-linejoin="round"/>
        <path d="M62,35.5 C62,26.663 66.029,19.5 71,19.5 C75.971,19.5 80,26.663 80,35.5 L80,99.5 C80,108.337 75.971,115.5 71,115.5 C66.029,115.5 62,108.337 62,99.5 z" fill-opacity="0" stroke="#FFFFFF" stroke-width="1" stroke-linejoin="round"/>
        <path d="M94.5,115 C93.37,114.899 93.04,114.948 91.824,114.281 C88.276,112.334 86.552,107.486 85.905,103.758 C85.526,101.579 85.554,100.909 85.5,99 L85.5,35 C85.562,30.055 87.019,22.355 91.824,19.719 C92.801,19.183 94.272,18.774 95.42,19.083 C96.022,19.244 96.63,19.42 97.176,19.719 C100.724,21.666 102.448,26.514 103.095,30.242 C103.474,32.421 103.446,33.091 103.5,35 L103.5,99 C103.438,103.945 101.981,111.645 97.176,114.281 C96.63,114.58 96.006,114.705 95.42,114.917 z" fill="url(#Gradient_1)" data-colored="true"/>
        <path d="M104,35.5 C104,44.337 99.971,51.5 95,51.5 C90.029,51.5 86,44.337 86,35.5" fill-opacity="0" stroke="#FFFFFF" stroke-width="1" stroke-linejoin="round"/>
        <path d="M86,35.5 C86,26.663 90.029,19.5 95,19.5 C99.971,19.5 104,26.663 104,35.5 L104,99.5 C104,108.337 99.971,115.5 95,115.5 C90.029,115.5 86,108.337 86,99.5 z" fill-opacity="0" stroke="#FFFFFF" stroke-width="1" stroke-linejoin="round"/>
        <path d="M118.5,115 C117.37,114.899 117.04,114.948 115.824,114.281 C112.276,112.334 110.552,107.486 109.905,103.758 C109.526,101.579 109.554,100.909 109.5,99 L109.5,35 C109.562,30.055 111.019,22.355 115.824,19.719 C116.801,19.183 118.272,18.774 119.42,19.083 C120.022,19.244 120.63,19.42 121.176,19.719 C124.724,21.666 126.448,26.514 127.095,30.242 C127.474,32.421 127.446,33.091 127.5,35 L127.5,99 C127.438,103.945 125.981,111.645 121.176,114.281 C120.63,114.58 120.006,114.705 119.42,114.917 z" fill="url(#Gradient_1)" data-colored="true"/>
        <path d="M128,35.5 C128,44.337 123.971,51.5 119,51.5 C114.029,51.5 110,44.337 110,35.5" fill-opacity="0" stroke="#FFFFFF" stroke-width="1" stroke-linejoin="round"/>
        <path d="M110,35.5 C110,26.663 114.029,19.5 119,19.5 C123.971,19.5 128,26.663 128,35.5 L128,99.5 C128,108.337 123.971,115.5 119,115.5 C114.029,115.5 110,108.337 110,99.5 z" fill-opacity="0" stroke="#FFFFFF" stroke-width="1" stroke-linejoin="round"/>
        <path d="M142.5,115 C141.37,114.899 141.04,114.948 139.824,114.281 C136.276,112.334 134.552,107.486 133.905,103.758 C133.526,101.579 133.554,100.909 133.5,99 L133.5,35 C133.562,30.055 135.019,22.355 139.824,19.719 C140.801,19.183 142.272,18.774 143.42,19.083 C144.022,19.244 144.63,19.42 145.176,19.719 C148.724,21.666 150.448,26.514 151.095,30.242 C151.474,32.421 151.446,33.091 151.5,35 L151.5,99 C151.438,103.945 149.981,111.645 145.176,114.281 C144.63,114.58 144.006,114.705 143.42,114.917 z" fill="url(#Gradient_1)" data-colored="true"/>
        <path d="M152,35.5 C152,44.337 147.971,51.5 143,51.5 C138.029,51.5 134,44.337 134,35.5" fill-opacity="0" stroke="#FFFFFF" stroke-width="1" stroke-linejoin="round"/>
        <path d="M134,35.5 C134,26.663 138.029,19.5 143,19.5 C147.971,19.5 152,26.663 152,35.5 L152,99.5 C152,108.337 147.971,115.5 143,115.5 C138.029,115.5 134,108.337 134,99.5 z" fill-opacity="0" stroke="#FFFFFF" stroke-width="1" stroke-linejoin="round"/>
        <path d="M166.5,115 C165.37,114.899 165.04,114.948 163.824,114.281 C160.276,112.334 158.552,107.486 157.905,103.758 C157.526,101.579 157.554,100.909 157.5,99 L157.5,35 C157.562,30.055 159.019,22.355 163.824,19.719 C164.801,19.183 166.272,18.774 167.42,19.083 C168.022,19.244 168.63,19.42 169.176,19.719 C172.724,21.666 174.448,26.514 175.095,30.242 C175.474,32.421 175.446,33.091 175.5,35 L175.5,99 C175.438,103.945 173.981,111.645 169.176,114.281 C168.63,114.58 168.006,114.705 167.42,114.917 z" fill="url(#Gradient_1)" data-colored="true"/>
        <path d="M176,35.5 C176,44.337 171.971,51.5 167,51.5 C162.029,51.5 158,44.337 158,35.5" fill-opacity="0" stroke="#FFFFFF" stroke-width="1" stroke-linejoin="round"/>
        <path d="M158,35.5 C158,26.663 162.029,19.5 167,19.5 C171.971,19.5 176,26.663 176,35.5 L176,99.5 C176,108.337 171.971,115.5 167,115.5 C162.029,115.5 158,108.337 158,99.5 z" fill-opacity="0" stroke="#FFFFFF" stroke-width="1" stroke-linejoin="round"/>
        <path d="M190.5,115 C189.37,114.899 189.04,114.948 187.824,114.281 C184.276,112.334 182.552,107.486 181.905,103.758 C181.526,101.579 181.554,100.909 181.5,99 L181.5,35 C181.562,30.055 183.019,22.355 187.824,19.719 C188.801,19.183 190.272,18.774 191.42,19.083 C192.022,19.244 192.63,19.42 193.176,19.719 C196.724,21.666 198.448,26.514 199.095,30.242 C199.474,32.421 199.446,33.091 199.5,35 L199.5,99 C199.438,103.945 197.981,111.645 193.176,114.281 C192.63,114.58 192.006,114.705 191.42,114.917 z" fill="url(#Gradient_1)" data-colored="true"/>
        <path d="M200,35.5 C200,44.337 195.971,51.5 191,51.5 C186.029,51.5 182,44.337 182,35.5" fill-opacity="0" stroke="#FFFFFF" stroke-width="1" stroke-linejoin="round"/>
        <path d="M182,35.5 C182,26.663 186.029,19.5 191,19.5 C195.971,19.5 200,26.663 200,35.5 L200,99.5 C200,108.337 195.971,115.5 191,115.5 C186.029,115.5 182,108.337 182,99.5 z" fill-opacity="0" stroke="#FFFFFF" stroke-width="1" stroke-linejoin="round"/>
        <path d="M2.75,14.797 C7.811,21.086 12.871,27.375 17.932,26.117 C22.992,24.859 28.686,7.25 33.114,7.25 C37.542,7.25 41.021,16.684 44.5,26.117" fill-opacity="0" stroke="#FF9900" stroke-width="3" stroke-linejoin="round"/>
        <path d="M164.625,25.5 C168.125,16.5 171.625,7.5 176.625,7.5 C181.625,7.5 188.125,16.5 194.625,25.5" fill-opacity="0" stroke="#FF9900" stroke-width="3" stroke-linejoin="round"/>
        <path d="M68.625,31.5 C70.125,26.3 71.625,21.1 74.625,17.1 C77.625,13.1 82.625,7.5 86.625,7.5 C90.625,7.5 97.625,13.9 98.625,17.1 C99.625,20.3 96.125,23.5 92.625,26.7" fill-opacity="0" stroke="#FF9900" stroke-width="3" stroke-linejoin="round"/>
        <path d="M116.625,31.5 C120.125,20.786 123.625,10.071 128.625,5.786 C133.625,1.5 144.625,2.929 146.625,5.786 C148.625,8.643 144.625,15.786 140.625,22.929" fill-opacity="0" stroke="#FF9900" stroke-width="3" stroke-linejoin="round"/>
      </g>
      <defs>
        <linearGradient id="Gradient_1" gradientUnits="userSpaceOnUse" x1="46.5" y1="19" x2="46.5" y2="115">
          <stop offset="0" stop-color="#FF9900"/>
          <stop offset="0.125" stop-color="#FF9E0B"/>
          <stop offset="0.25" stop-color="#FFA217"/>
          <stop offset="0.375" stop-color="#FFA722"/>
          <stop offset="0.5" stop-color="#FFAB2E"/>
          <stop offset="0.625" stop-color="#FFB039"/>
          <stop offset="0.75" stop-color="#FFB444"/>
          <stop offset="0.875" stop-color="#FFB950"/>
          <stop offset="1" stop-color="#FFBD5B"/>
        </linearGradient>
        <linearGradient id="Gradient_2" gradientUnits="userSpaceOnUse" x1="70.5" y1="19" x2="70.5" y2="115">
          <stop offset="0" stop-color="#FF9900"/>
          <stop offset="0.125" stop-color="#FF9E0B"/>
          <stop offset="0.25" stop-color="#FFA217"/>
          <stop offset="0.375" stop-color="#FFA722"/>
          <stop offset="0.5" stop-color="#FFAB2E"/>
          <stop offset="0.625" stop-color="#FFB039"/>
          <stop offset="0.75" stop-color="#FFB444"/>
          <stop offset="0.875" stop-color="#FFB950"/>
          <stop offset="1" stop-color="#FFBD5B"/>
        </linearGradient>
        <linearGradient id="Gradient_3" gradientUnits="userSpaceOnUse" x1="94.5" y1="19" x2="94.5" y2="115">
          <stop offset="0" stop-color="#FF9900"/>
          <stop offset="0.125" stop-color="#FF9E0B"/>
          <stop offset="0.25" stop-color="#FFA217"/>
          <stop offset="0.375" stop-color="#FFA722"/>
          <stop offset="0.5" stop-color="#FFAB2E"/>
          <stop offset="0.625" stop-color="#FFB039"/>
          <stop offset="0.75" stop-color="#FFB444"/>
          <stop offset="0.875" stop-color="#FFB950"/>
          <stop offset="1" stop-color="#FFBD5B"/>
        </linearGradient>
        <linearGradient id="Gradient_4" gradientUnits="userSpaceOnUse" x1="118.5" y1="19" x2="118.5" y2="115">
          <stop offset="0" stop-color="#FF9900"/>
          <stop offset="0.125" stop-color="#FF9E0B"/>
          <stop offset="0.25" stop-color="#FFA217"/>
          <stop offset="0.375" stop-color="#FFA722"/>
          <stop offset="0.5" stop-color="#FFAB2E"/>
          <stop offset="0.625" stop-color="#FFB039"/>
          <stop offset="0.75" stop-color="#FFB444"/>
          <stop offset="0.875" stop-color="#FFB950"/>
          <stop offset="1" stop-color="#FFBD5B"/>
        </linearGradient>
        <linearGradient id="Gradient_5" gradientUnits="userSpaceOnUse" x1="142.5" y1="19" x2="142.5" y2="115">
          <stop offset="0" stop-color="#FF9900"/>
          <stop offset="0.125" stop-color="#FF9E0B"/>
          <stop offset="0.25" stop-color="#FFA217"/>
          <stop offset="0.375" stop-color="#FFA722"/>
          <stop offset="0.5" stop-color="#FFAB2E"/>
          <stop offset="0.625" stop-color="#FFB039"/>
          <stop offset="0.75" stop-color="#FFB444"/>
          <stop offset="0.875" stop-color="#FFB950"/>
          <stop offset="1" stop-color="#FFBD5B"/>
        </linearGradient>
        <linearGradient id="Gradient_6" gradientUnits="userSpaceOnUse" x1="166.5" y1="19" x2="166.5" y2="115">
          <stop offset="0" stop-color="#FF9900"/>
          <stop offset="0.125" stop-color="#FF9E0B"/>
          <stop offset="0.25" stop-color="#FFA217"/>
          <stop offset="0.375" stop-color="#FFA722"/>
          <stop offset="0.5" stop-color="#FFAB2E"/>
          <stop offset="0.625" stop-color="#FFB039"/>
          <stop offset="0.75" stop-color="#FFB444"/>
          <stop offset="0.875" stop-color="#FFB950"/>
          <stop offset="1" stop-color="#FFBD5B"/>
        </linearGradient>
        <linearGradient id="Gradient_7" gradientUnits="userSpaceOnUse" x1="190.5" y1="19" x2="190.5" y2="115">
          <stop offset="0" stop-color="#FF9900"/>
          <stop offset="0.125" stop-color="#FF9E0B"/>
          <stop offset="0.25" stop-color="#FFA217"/>
          <stop offset="0.375" stop-color="#FFA722"/>
          <stop offset="0.5" stop-color="#FFAB2E"/>
          <stop offset="0.625" stop-color="#FFB039"/>
          <stop offset="0.75" stop-color="#FFB444"/>
          <stop offset="0.875" stop-color="#FFB950"/>
          <stop offset="1" stop-color="#FFBD5B"/>
        </linearGradient>
      </defs>
      
      <rect x="60" y="35" height="60" width="120" fill="white"/>
      <text x="0" y="40" font-family="Verdana" text-anchor="middle" font-size="10" fill="black" pointer-events="none">
        
          <tspan x="120" dy="10">Vascular</tspan>
        
          <tspan x="120" dy="10">endothelial</tspan>
        
          <tspan x="120" dy="10">growth factor</tspan>
        
          <tspan x="120" dy="10">receptor 1</tspan>
        
      </text>
      
    </g>
  </g></g><g><g>
    
    
    
    
      
      
    
    
    
    
    
    <path data-colored="true" d="M350 175 C380 175 525 175 555 175 " fill="none" stroke="#FF0000" stroke-width="5"/>
    <path id="arrow_path" data-colored="true" d=" M 555 190 L 555 175 L 555 160" fill="none" stroke="#FF0000" stroke-width="5"/>
    
  </g></g><g><g>
    
    
    
    
      
      
    
    
    
    
    
    <path data-colored="true" d="M635 215 C635 281 445 407 445 507 " fill="none" stroke="#2AC5E5" stroke-width="5"/>
    <path id="arrow_path" data-colored="true" d=" M 437.5 494.0096189432334 L 445 507 L 452.5 494.0096189432334" fill="none" stroke="#2AC5E5" stroke-width="5"/>
    
  </g></g><g><g>
    
    
    
    
      
      
    
    
    
    
    
    <path data-colored="true" d="M635 215 C636 283 808 401 810 512 " fill="none" stroke="#2AC5E5" stroke-width="5"/>
    <path id="arrow_path" data-colored="true" d=" M 802.2671942019296 499.146840291612 L 810 512 L 817.2647599273273 498.8766138821454" fill="none" stroke="#2AC5E5" stroke-width="5"/>
    
  </g></g></g>
	</svg>
